<svg viewBox="0 0 100 100" xmlns="http://www.w3.org/2000/svg">
  <circle cx="50" cy="50" r="47" fill="none" stroke="url(#pastel)" stroke-width="4"/>
  <defs>
    <linearGradient id="pastel" x1="0" y1="0" x2="1" y2="1">
      <stop offset="0%" stop-color="#fcd5ce"/>
      <stop offset="35%" stop-color="#cdb4db"/>
      <stop offset="70%" stop-color="#b5ead7"/>
      <stop offset="100%" stop-color="#fff1e6"/>
    </linearGradient>
  </defs>
  <polygon points="94,14 97,18 102,19 98,22 99,27 94,24 90,27 91,22 87,19 92,18" fill="#fff3ac" opacity="0.7"/>
  <polygon points="15,90 18,93 22,95 17,97 18,102 14,98 10,102 11,97 7,95 12,93" fill="#cdb4db" opacity="0.6"/>
  <circle cx="20" cy="24" r="1.2" fill="#fcb1b1"/>
  <circle cx="80" cy="78" r="1.1" fill="#b5ead7"/>
  <rect x="34" y="12" width="1.3" height="1.3" fill="#fcd5ce"/>
  <rect x="60" y="90" width="1.1" height="1.1" fill="#cdb4db"/>
</svg>
